<svg xmlns="http://www.w3.org/2000/svg" xmlns:xlink="http://www.w3.org/1999/xlink" width="121" zoomAndPan="magnify" viewBox="0 0 90.75 37.5" height="50" preserveAspectRatio="xMidYMid meet" version="1.0"><defs><g/><clipPath id="275e55477b"><path d="M 0.472656 0 L 90.03125 0 L 90.03125 37.007812 L 0.472656 37.007812 Z M 0.472656 0 " clip-rule="nonzero"/></clipPath><clipPath id="033b874a92"><path d="M 8.304688 26 L 21 26 L 21 34 L 8.304688 34 Z M 8.304688 26 " clip-rule="nonzero"/></clipPath></defs><g clip-path="url(#275e55477b)"><path fill="#ffffff" d="M 0.472656 0 L 90.03125 0 L 90.03125 37.007812 L 0.472656 37.007812 Z M 0.472656 0 " fill-opacity="1" fill-rule="nonzero"/><path fill="#ffffff" d="M 0.472656 0 L 90.03125 0 L 90.03125 37.007812 L 0.472656 37.007812 Z M 0.472656 0 " fill-opacity="1" fill-rule="nonzero"/></g><path fill="#b02c13" d="M 19.785156 29.464844 C 23.789062 34.617188 29.316406 31.703125 30.878906 24.847656 C 31.175781 23.546875 31.296875 21.996094 31.355469 21 C 29.660156 21.492188 18.609375 22.78125 17.5625 20.1875 C 17.023438 18.851562 19.722656 17.320312 23.457031 17.566406 L 23.539062 18.132812 C 21.789062 18.042969 20.613281 18.320312 19.90625 18.667969 C 18.660156 19.273438 18.863281 19.839844 19.914062 20.230469 C 22.808594 21.3125 31.296875 20 32.835938 19.265625 C 32.070312 35.148438 22.492188 35.511719 19.785156 29.464844 Z M 19.785156 29.464844 " fill-opacity="1" fill-rule="evenodd"/><path fill="#b02c13" d="M 32.464844 22.941406 C 35.195312 18.351562 38.449219 23.183594 34.570312 24.941406 C 31.464844 26.347656 31.605469 27.25 32.574219 28.726562 C 32.308594 27.503906 32.589844 27.238281 35.347656 25.984375 C 39.097656 24.273438 39.300781 21.535156 37.863281 20.1875 C 36.367188 18.777344 33.113281 18.847656 31.898438 21.550781 C 31.851562 21.652344 31.808594 21.753906 31.765625 21.855469 Z M 32.464844 22.941406 " fill-opacity="1" fill-rule="evenodd"/><path fill="#afbd4b" d="M 25.453125 0.0429688 C 28.539062 3.011719 28.34375 4.652344 27.066406 5.726562 C 26.398438 4.914062 25.523438 4.03125 24.410156 3.066406 C 25.464844 4.085938 26.230469 5.0625 26.746094 5.972656 C 26.371094 6.230469 25.941406 6.453125 25.488281 6.65625 C 22.183594 8.125 14.917969 10.40625 21.902344 16.75 C 17.53125 11.703125 23.804688 10.054688 26.355469 8.382812 C 26.726562 8.136719 27.097656 7.90625 27.441406 7.671875 C 27.890625 9.476562 27.203125 10.839844 25.855469 11.441406 C 22.550781 12.910156 18.386719 13.632812 25.375 19.972656 C 21.003906 14.929688 24.171875 14.839844 26.722656 13.167969 C 28.628906 11.917969 29.800781 10.074219 28.105469 7.1875 C 29.792969 5.839844 30.246094 4.179688 25.453125 0.0429688 Z M 25.453125 0.0429688 " fill-opacity="1" fill-rule="evenodd"/><path fill="#afbd4b" d="M 30.355469 24.730469 C 28.199219 33.785156 20.480469 33.558594 18.859375 24.390625 C 24.089844 27.980469 26.503906 21.167969 30.355469 24.730469 Z M 30.355469 24.730469 " fill-opacity="1" fill-rule="evenodd"/><g clip-path="url(#033b874a92)"><path fill="#afbd4b" d="M 12.226562 28.195312 C 14.664062 28.148438 18.699219 29.484375 19.78125 31.894531 C 17.910156 32.988281 16.359375 33.375 15.023438 33.292969 C 12.140625 33.109375 11.949219 29.777344 8.304688 28.519531 C 15.007812 24.6875 17.925781 27.300781 20.285156 30.863281 C 17.085938 27.84375 14.71875 27.925781 12.226562 28.195312 Z M 12.226562 28.195312 " fill-opacity="1" fill-rule="evenodd"/></g><path fill="#afbd4b" d="M 18.945312 35.316406 C 18.9375 34.292969 19.515625 32.605469 20.53125 32.160156 C 20.984375 32.949219 21.140625 33.601562 21.097656 34.164062 C 21.011719 35.375 19.609375 35.4375 19.066406 36.964844 C 17.484375 34.132812 18.59375 32.917969 20.101562 31.941406 C 18.820312 33.273438 18.84375 34.269531 18.945312 35.316406 Z M 18.945312 35.316406 " fill-opacity="1" fill-rule="evenodd"/><g fill="#b02c13" fill-opacity="1"><g transform="translate(41.193922, 27.489806)"><g><path d="M 3.5 -3.15625 C 3.5 -3.601562 3.347656 -3.957031 3.046875 -4.21875 C 2.742188 -4.46875 2.367188 -4.59375 1.921875 -4.59375 C 1.765625 -4.59375 1.59375 -4.570312 1.40625 -4.53125 L 1.40625 -1.5 L 1.96875 -1.5 C 2.394531 -1.488281 2.753906 -1.660156 3.046875 -2.015625 C 3.347656 -2.347656 3.5 -2.726562 3.5 -3.15625 Z M 5.0625 -6.46875 L 1.40625 -6.46875 L 1.40625 -5.546875 C 1.46875 -5.546875 1.53125 -5.546875 1.59375 -5.546875 C 1.65625 -5.554688 1.722656 -5.5625 1.796875 -5.5625 C 2.523438 -5.5625 3.140625 -5.347656 3.640625 -4.921875 L 3.640625 -4.9375 C 4.179688 -4.476562 4.453125 -3.882812 4.453125 -3.15625 C 4.453125 -2.757812 4.378906 -2.394531 4.234375 -2.0625 C 4.085938 -1.738281 3.882812 -1.457031 3.625 -1.21875 C 3.363281 -0.988281 3.066406 -0.8125 2.734375 -0.6875 C 2.398438 -0.570312 2.035156 -0.515625 1.640625 -0.515625 L 0.40625 -0.515625 L 0.40625 -6.46875 L -0.328125 -6.46875 L -0.328125 -7.46875 L 5.0625 -7.46875 Z M 5.0625 -6.46875 "/></g></g></g><g fill="#b02c13" fill-opacity="1"><g transform="translate(46.05811, 27.489806)"><g><path d="M 2.21875 -6.46875 L 1.375 -6.46875 L 1.375 0.015625 L 0.375 0.015625 L 0.375 -6.46875 L -0.46875 -6.46875 L -0.46875 -7.46875 L 2.21875 -7.46875 Z M 2.21875 -6.46875 "/></g></g></g><g fill="#b02c13" fill-opacity="1"><g transform="translate(47.882182, 27.489806)"><g><path d="M 3.46875 -6.46875 L 2.71875 -6.46875 L 2.71875 -5.734375 C 2.144531 -5.285156 1.753906 -4.90625 1.546875 -4.59375 L 1.5625 -4.609375 C 1.289062 -4.203125 1.15625 -3.71875 1.15625 -3.15625 C 1.15625 -2.644531 1.273438 -2.195312 1.515625 -1.8125 C 1.796875 -1.363281 2.207031 -1.140625 2.75 -1.140625 L 2.75 -0.15625 C 1.082031 -0.40625 0.25 -1.515625 0.25 -3.484375 C 0.25 -4.398438 0.738281 -5.273438 1.71875 -6.109375 L 1.71875 -6.46875 L -0.28125 -6.46875 L -0.28125 -7.46875 L 3.46875 -7.46875 Z M 3.46875 -6.46875 "/></g></g></g><g fill="#b02c13" fill-opacity="1"><g transform="translate(51.088123, 27.489806)"><g><path d="M 4.203125 -1.34375 L 4.203125 -6.46875 L 2.890625 -6.46875 C 3.265625 -6.101562 3.453125 -5.632812 3.453125 -5.0625 C 3.453125 -4.800781 3.40625 -4.5625 3.3125 -4.34375 C 3.226562 -4.125 3.109375 -3.929688 2.953125 -3.765625 C 2.785156 -3.585938 2.597656 -3.445312 2.390625 -3.34375 C 2.179688 -3.25 1.953125 -3.203125 1.703125 -3.203125 C 1.671875 -3.203125 1.632812 -3.203125 1.59375 -3.203125 C 1.550781 -3.203125 1.515625 -3.203125 1.484375 -3.203125 C 1.503906 -2.921875 1.585938 -2.664062 1.734375 -2.4375 C 1.878906 -2.21875 2.085938 -2.015625 2.359375 -1.828125 L 2.359375 -1.84375 C 2.921875 -1.457031 3.53125 -1.289062 4.1875 -1.34375 Z M 1.890625 0.0625 C 1.515625 0 1.171875 -0.164062 0.859375 -0.4375 C 0.578125 -0.675781 0.332031 -1.035156 0.125 -1.515625 L 1.125 -1.515625 C 1.25 -1.253906 1.429688 -1.023438 1.671875 -0.828125 C 1.910156 -0.640625 2.207031 -0.507812 2.5625 -0.4375 Z M 6.0625 -6.46875 L 5.203125 -6.46875 L 5.203125 -0.359375 L 3.953125 -0.359375 C 3.023438 -0.359375 2.191406 -0.710938 1.453125 -1.421875 C 1.066406 -1.796875 0.785156 -2.195312 0.609375 -2.625 C 0.441406 -3.050781 0.367188 -3.488281 0.390625 -3.9375 C 0.390625 -4 0.390625 -4.085938 0.390625 -4.203125 C 0.398438 -4.328125 0.40625 -4.410156 0.40625 -4.453125 C 0.59375 -4.359375 0.765625 -4.285156 0.921875 -4.234375 C 1.078125 -4.191406 1.222656 -4.171875 1.359375 -4.171875 C 2.128906 -4.171875 2.515625 -4.554688 2.515625 -5.328125 C 2.515625 -5.734375 2.140625 -6.113281 1.390625 -6.46875 L -0.3125 -6.46875 L -0.3125 -7.46875 L 6.0625 -7.46875 Z M 6.0625 -6.46875 "/></g></g></g><g fill="#b02c13" fill-opacity="1"><g transform="translate(56.880927, 27.489806)"><g><path d="M 2.15625 0.59375 C 1.789062 0.59375 1.421875 0.4375 1.046875 0.125 C 0.722656 -0.144531 0.457031 -0.519531 0.25 -1 L 1.265625 -1 C 1.335938 -0.863281 1.4375 -0.738281 1.5625 -0.625 C 1.695312 -0.519531 1.851562 -0.425781 2.03125 -0.34375 C 2.207031 -0.269531 2.398438 -0.207031 2.609375 -0.15625 C 2.828125 -0.113281 3.050781 -0.09375 3.28125 -0.09375 Z M 3.265625 -5.125 C 2.984375 -5.113281 2.734375 -5.070312 2.515625 -5 C 2.296875 -4.925781 2.097656 -4.820312 1.921875 -4.6875 C 1.515625 -4.375 1.3125 -3.929688 1.3125 -3.359375 C 1.3125 -3.046875 1.359375 -2.769531 1.453125 -2.53125 C 1.554688 -2.289062 1.707031 -2.082031 1.90625 -1.90625 C 2.070312 -1.757812 2.269531 -1.640625 2.5 -1.546875 C 2.738281 -1.460938 2.992188 -1.410156 3.265625 -1.390625 Z M 5.109375 -6.46875 L 4.265625 -6.46875 L 4.265625 -0.390625 C 1.671875 -0.390625 0.375 -1.382812 0.375 -3.375 C 0.375 -3.789062 0.453125 -4.175781 0.609375 -4.53125 C 0.773438 -4.882812 0.992188 -5.1875 1.265625 -5.4375 C 1.796875 -5.894531 2.460938 -6.140625 3.265625 -6.171875 L 3.265625 -6.46875 L -0.375 -6.46875 L -0.375 -7.46875 L 5.109375 -7.46875 Z M 5.109375 -6.46875 "/></g></g></g><g fill="#b02c13" fill-opacity="1"><g transform="translate(61.800388, 27.489806)"><g/></g></g><g fill="#b02c13" fill-opacity="1"><g transform="translate(65.8244, 27.489806)"><g><path d="M 5.5 -6.46875 L 1.4375 -6.46875 L 1.4375 -1.515625 L 1.84375 -1.515625 C 3.050781 -1.515625 3.65625 -2.015625 3.65625 -3.015625 C 3.65625 -3.847656 3.109375 -4.320312 2.015625 -4.4375 L 2.015625 -5.46875 C 2.867188 -5.363281 3.507812 -5.09375 3.9375 -4.65625 L 3.9375 -4.671875 C 4.394531 -4.210938 4.625 -3.617188 4.625 -2.890625 C 4.625 -1.304688 3.640625 -0.515625 1.671875 -0.515625 L 0.4375 -0.515625 L 0.4375 -6.46875 L -0.390625 -6.46875 L -0.390625 -7.46875 L 3.546875 -7.46875 C 3.460938 -7.800781 3.320312 -8.054688 3.125 -8.234375 C 2.925781 -8.410156 2.65625 -8.5 2.3125 -8.5 C 2.195312 -8.5 2.0625 -8.476562 1.90625 -8.4375 C 1.75 -8.40625 1.597656 -8.351562 1.453125 -8.28125 C 1.316406 -8.21875 1.195312 -8.132812 1.09375 -8.03125 C 0.988281 -7.9375 0.929688 -7.828125 0.921875 -7.703125 L -0.125 -7.703125 C -0.0820312 -8.023438 0.0078125 -8.273438 0.15625 -8.453125 C 0.3125 -8.640625 0.519531 -8.816406 0.78125 -8.984375 C 1.21875 -9.273438 1.710938 -9.421875 2.265625 -9.421875 C 2.898438 -9.421875 3.421875 -9.25 3.828125 -8.90625 C 4.234375 -8.5625 4.484375 -8.082031 4.578125 -7.46875 L 5.5 -7.46875 Z M 5.5 -6.46875 "/></g></g></g><g fill="#b02c13" fill-opacity="1"><g transform="translate(70.887581, 27.489806)"><g><path d="M 2.609375 -5.765625 C 2.609375 -5.953125 2.535156 -6.113281 2.390625 -6.25 C 2.242188 -6.382812 2.066406 -6.453125 1.859375 -6.453125 C 1.679688 -6.453125 1.53125 -6.382812 1.40625 -6.25 C 1.289062 -6.113281 1.234375 -5.957031 1.234375 -5.78125 C 1.234375 -5.582031 1.300781 -5.40625 1.4375 -5.25 C 1.570312 -5.09375 1.734375 -5.015625 1.921875 -5.015625 C 2.117188 -5.015625 2.28125 -5.085938 2.40625 -5.234375 C 2.539062 -5.378906 2.609375 -5.554688 2.609375 -5.765625 Z M 2.734375 -0.015625 C 2.734375 -1.179688 2.609375 -1.898438 2.359375 -2.171875 C 2.078125 -2.503906 1.375 -2.703125 0.25 -2.765625 L 0.25 -3.71875 C 1.570312 -3.71875 2.492188 -3.425781 3.015625 -2.84375 C 3.492188 -2.300781 3.734375 -1.359375 3.734375 -0.015625 Z M 3.546875 -5.6875 C 3.546875 -5.21875 3.398438 -4.832031 3.109375 -4.53125 C 2.785156 -4.21875 2.398438 -4.0625 1.953125 -4.0625 C 1.535156 -4.0625 1.15625 -4.21875 0.8125 -4.53125 C 0.488281 -4.863281 0.328125 -5.238281 0.328125 -5.65625 C 0.328125 -6.164062 0.460938 -6.578125 0.734375 -6.890625 C 1.035156 -7.253906 1.429688 -7.4375 1.921875 -7.4375 C 2.171875 -7.4375 2.390625 -7.390625 2.578125 -7.296875 C 2.765625 -7.210938 2.941406 -7.082031 3.109375 -6.90625 C 3.398438 -6.570312 3.546875 -6.164062 3.546875 -5.6875 Z M 3.546875 -5.6875 "/></g></g></g></svg>